<?xml version="1.0" standalone="no"?>
<!DOCTYPE svg PUBLIC "-//W3C//DTD SVG 20010904//EN"
 "http://www.w3.org/TR/2001/REC-SVG-20010904/DTD/svg10.dtd">
<svg version="1.0" xmlns="http://www.w3.org/2000/svg"
 width="2000.000000pt" height="2000.000000pt" viewBox="0 0 2000.000000 2000.000000"
 preserveAspectRatio="xMidYMid meet">
<metadata>
Created by potrace 1.11, written by Peter Selinger 2001-2013
</metadata>
<g transform="translate(0.000000,2000.000000) scale(0.100000,-0.100000)"
fill="#000000" stroke="none">
<path d="M0 10000 l0 -10000 10000 0 10000 0 0 10000 0 10000 -10000 0 -10000
0 0 -10000z m3247 1888 c22 -21 23 -28 23 -168 0 -187 1 -186 -145 -192 -120
-4 -160 -23 -203 -96 l-27 -47 -5 -530 c-4 -426 -8 -535 -19 -555 -7 -14 -73
-85 -145 -158 l-130 -132 136 -138 c75 -75 143 -150 150 -167 9 -23 14 -161
18 -560 3 -375 8 -536 17 -550 14 -25 51 -58 83 -76 14 -8 70 -16 129 -19 142
-7 141 -6 141 -195 0 -194 4 -190 -162 -189 -134 1 -179 10 -278 57 -91 44
-215 168 -258 259 -58 120 -62 155 -62 662 l0 460 -179 180 c-178 180 -201
212 -201 276 0 65 23 96 201 275 l179 181 0 459 c0 515 3 547 66 674 50 101
144 195 247 246 101 50 160 63 291 64 100 1 112 -1 133 -21z m1877 2 c108 -27
169 -63 256 -150 87 -87 123 -148 150 -256 19 -71 20 -112 20 -543 l0 -465
175 -176 c107 -108 180 -189 190 -212 20 -50 19 -111 -4 -156 -11 -20 -96
-113 -190 -207 l-171 -170 0 -470 c0 -525 -2 -543 -67 -669 -102 -195 -299
-305 -549 -306 -83 0 -93 2 -118 25 -26 24 -26 25 -26 168 0 141 0 144 26 168
22 21 37 24 127 29 126 6 163 25 201 102 l26 52 0 508 c0 435 2 514 15 545 9
22 72 94 150 173 l135 136 -136 134 c-75 74 -142 149 -150 167 -11 26 -14 127
-14 535 0 320 -4 517 -11 541 -25 93 -106 137 -250 137 -72 0 -79 2 -98 26
-19 24 -21 40 -21 166 0 134 1 140 25 163 22 23 31 25 128 25 71 0 128 -6 181
-20z m-934 -587 c82 -38 145 -100 184 -183 28 -59 31 -74 31 -160 0 -86 -3
-101 -31 -160 -127 -268 -490 -295 -656 -50 -143 212 -41 496 205 576 72 23
191 13 267 -23z m-6 -1511 c100 -45 183 -143 212 -249 30 -112 6 -365 -50
-531 -89 -261 -262 -433 -492 -492 -110 -28 -157 -27 -183 6 -19 24 -21 40
-21 163 0 165 3 171 97 200 82 24 131 59 178 126 l36 49 -34 12 c-106 37 -187
107 -239 205 -30 59 -32 71 -33 159 0 83 4 103 27 153 47 101 122 172 219 207
74 28 212 24 283 -8z"/>
</g>
</svg>
